<svg width="139" height="34" viewBox="0 0 139 34" fill="none" xmlns="http://www.w3.org/2000/svg">
<path d="M1.58289 3.55906V17.7242H5.26481V1.55591H3.58629C2.46727 1.55591 1.58289 2.45017 1.58289 3.55906Z" fill="#050509"/>
<path d="M18.2056 3.52329V11.2855L10.8418 1.59168L10.8237 1.57379H7.48474V17.7421H11.0945V7.67269L18.693 17.6885L18.711 17.7064H21.7973V1.55591H20.1729C19.09 1.55591 18.2056 2.43229 18.2056 3.52329Z" fill="#050509"/>
<path d="M38.1674 4.81104V1.55591H36.6694C35.5143 1.55591 34.5577 2.48595 34.5577 3.64849V11.2855L27.2119 1.59168L27.1939 1.57379H23.8549V17.7421H27.4646V7.67269L35.045 17.6885L35.0631 17.7064H38.1494V14.7195C36.6694 11.5896 36.6694 7.94097 38.1674 4.81104Z" fill="#050509"/>
<path d="M73.615 1.55591H69.6443L65.4751 12.7163L61.3239 1.55591H57.2629L57.4976 2.12824C59.2663 4.11351 60.2951 6.65322 60.4034 9.31814L63.8326 17.8316H67.0634L73.597 1.66322L73.615 1.55591Z" fill="#050509"/>
<path d="M80.2208 1.44873H76.8638L69.9511 17.6349L69.915 17.7244H73.6872L75.1672 14.1294H81.8813L83.3432 17.6886L83.3613 17.7244H87.2056L80.2389 1.4845L80.2208 1.44873ZM76.4667 10.8743L78.5062 5.93795L80.5457 10.8743H76.4667Z" fill="#050509"/>
<path d="M83.9208 2.91525C83.9208 4.05991 84.8593 4.98995 86.0144 4.98995H88.812V17.7601H92.4939V4.98995H97.4031V1.60962H83.9208V2.91525Z" fill="#050509"/>
<path d="M100.634 1.55591H99.0275V17.7242H102.709V3.63061C102.709 2.48594 101.789 1.55591 100.634 1.55591Z" fill="#050509"/>
<path d="M113.539 1.2876C108.684 1.2876 104.875 4.95409 104.875 9.64004V9.67581C104.875 14.4154 108.575 17.9925 113.484 17.9925C118.34 17.9925 122.148 14.326 122.148 9.64004V9.58639C122.148 4.84678 118.448 1.2876 113.539 1.2876ZM118.303 9.67581C118.303 12.4838 116.264 14.5943 113.539 14.5943C110.795 14.5943 108.738 12.4659 108.738 9.62216V9.5685C108.738 6.76051 110.777 4.65004 113.503 4.65004C116.246 4.65004 118.303 6.77839 118.303 9.62216V9.67581Z" fill="#050509"/>
<path d="M135.757 1.55591H134.132V11.2855L126.786 1.59168L126.768 1.55591H123.429V17.7242H127.039V7.67269L134.638 17.6885L134.656 17.7064H137.742V3.52329C137.742 2.43229 136.858 1.55591 135.757 1.55591Z" fill="#050509"/>
<path d="M48.0401 4.16713C47.9859 4.2029 47.9318 4.22078 47.8596 4.25655C48.5635 4.31021 49.2494 4.41752 49.9172 4.61426C52.4981 5.43698 54.0142 8.15555 54.1405 10.588C54.321 14.2008 51.6498 17.2055 47.7152 17.295C45.4952 17.3665 43.3474 16.4722 41.8314 14.8625C40.5318 13.4496 39.7377 11.7863 39.4309 9.74735C39.4128 9.69369 39.3587 9.65792 39.3045 9.65792C39.2504 9.65792 39.1962 9.71158 39.1962 9.76523C39.1782 10.2124 39.2143 10.6595 39.2865 11.0887C39.846 14.2723 42.1201 16.9372 45.3689 18.225C48.5996 19.4948 51.6318 18.9941 54.4293 17.1161C58.8873 14.1292 58.7068 7.47591 53.96 4.72157C52.3718 3.8273 49.7728 3.32652 48.0401 4.16713Z" fill="url(#paint0_linear_756_1156)"/>
<path d="M49.6464 15.1131C49.7005 15.0773 49.7546 15.0594 49.8268 15.0236C49.1229 14.9879 48.4371 14.8984 47.7512 14.7196C45.1522 13.9684 43.564 11.2677 43.4015 8.83532C43.1488 5.20459 45.7478 2.1462 49.6644 1.96735C51.8844 1.84215 54.0502 2.68276 55.6024 4.25667C56.938 5.63384 57.7682 7.29718 58.1292 9.30033C58.1473 9.35399 58.2014 9.38976 58.2556 9.38976C58.3097 9.38976 58.3638 9.3361 58.3638 9.28245C58.3638 8.83532 58.3278 8.38818 58.2556 7.95893C57.6058 4.77535 55.2775 2.16409 52.0107 0.965773C48.7439 -0.232544 45.7298 0.339786 42.9864 2.2714C38.5825 5.38345 38.9254 12.0368 43.7444 14.6659C45.3327 15.5423 47.9317 15.9894 49.6464 15.1131Z" fill="url(#paint1_linear_756_1156)"/>
<path d="M1.52869 24.3777C1.52869 23.1078 2.48527 22.0884 3.83891 22.0884C4.66915 22.0884 5.17451 22.3567 5.58963 22.768L4.97598 23.4834C4.63306 23.1794 4.29013 22.9826 3.83891 22.9826C3.09892 22.9826 2.55746 23.5907 2.55746 24.3598V24.3777C2.55746 25.1289 3.08087 25.7549 3.83891 25.7549C4.34428 25.7549 4.6511 25.5581 5.01208 25.2362L5.62573 25.8622C5.17451 26.3451 4.66915 26.6491 3.80282 26.6491C2.50331 26.6313 1.52869 25.6297 1.52869 24.3777Z" fill="#050509"/>
<path d="M5.9325 25.5938C5.9325 24.8426 6.492 24.5028 7.30419 24.5028C7.64712 24.5028 7.8998 24.5564 8.13443 24.6459V24.5922C8.13443 24.1987 7.88175 23.9841 7.41248 23.9841C7.05151 23.9841 6.78078 24.0556 6.47395 24.163L6.23932 23.4297C6.61834 23.2687 6.97932 23.1614 7.55687 23.1614C8.08029 23.1614 8.45931 23.3045 8.71199 23.537C8.96467 23.7874 9.07296 24.163 9.07296 24.6101V26.5596H8.13443V26.2019C7.8998 26.4523 7.57492 26.6311 7.10566 26.6311C6.45591 26.6132 5.9325 26.2555 5.9325 25.5938ZM8.13443 25.3792V25.2182C7.97199 25.1466 7.75541 25.093 7.52078 25.093C7.10566 25.093 6.85298 25.254 6.85298 25.558V25.5759C6.85298 25.8263 7.06956 25.9873 7.37639 25.9873C7.84565 25.9694 8.13443 25.719 8.13443 25.3792Z" fill="#050509"/>
<path d="M9.70471 23.1972H10.6613V23.6801C10.8779 23.3939 11.1667 23.1436 11.654 23.1436C12.3759 23.1436 12.8091 23.6265 12.8091 24.3955V26.5775H11.8525V24.6817C11.8525 24.2346 11.6359 24.0021 11.2749 24.0021C10.914 24.0021 10.6793 24.2346 10.6793 24.6817V26.5597H9.72276V23.1972H9.70471Z" fill="#050509"/>
<path d="M13.2423 25.5938C13.2423 24.8426 13.8018 24.5028 14.614 24.5028C14.9569 24.5028 15.2096 24.5564 15.4442 24.6459V24.5922C15.4442 24.1987 15.1916 23.9841 14.7223 23.9841C14.3613 23.9841 14.0906 24.0556 13.7838 24.163L13.5491 23.4297C13.9282 23.2687 14.2891 23.1614 14.8667 23.1614C15.3901 23.1614 15.7691 23.3045 16.0218 23.537C16.2745 23.7874 16.3828 24.163 16.3828 24.6101V26.5596H15.4442V26.2019C15.2096 26.4523 14.8847 26.6311 14.4155 26.6311C13.7838 26.6132 13.2423 26.2555 13.2423 25.5938ZM15.4623 25.3792V25.2182C15.2999 25.1466 15.0833 25.093 14.8486 25.093C14.4335 25.093 14.1808 25.254 14.1808 25.558V25.5759C14.1808 25.8263 14.3974 25.9873 14.7043 25.9873C15.1555 25.9694 15.4623 25.719 15.4623 25.3792Z" fill="#050509"/>
<path d="M16.8521 24.8784C16.8521 23.7338 17.592 23.1257 18.4042 23.1257C18.9096 23.1257 19.2345 23.3582 19.4691 23.6265V21.9631H20.4257V26.5597H19.4691V26.0768C19.2345 26.3987 18.9096 26.6312 18.4042 26.6312C17.6101 26.6133 16.8521 26.0052 16.8521 24.8784ZM19.4691 24.8784C19.4691 24.3061 19.0901 23.9305 18.6389 23.9305C18.1877 23.9305 17.8086 24.2882 17.8086 24.8606V24.8784C17.8086 25.4329 18.1877 25.8085 18.6389 25.8085C19.1081 25.8085 19.4691 25.4329 19.4691 24.8784Z" fill="#050509"/>
<path d="M20.8949 25.5938C20.8949 24.8426 21.4544 24.5028 22.2666 24.5028C22.6095 24.5028 22.8622 24.5564 23.0968 24.6459V24.5922C23.0968 24.1987 22.8442 23.9841 22.3749 23.9841C22.0139 23.9841 21.7432 24.0556 21.4364 24.163L21.2017 23.4297C21.5807 23.2687 21.9417 23.1614 22.5193 23.1614C23.0427 23.1614 23.4217 23.3045 23.6744 23.537C23.9271 23.7874 24.0354 24.163 24.0354 24.6101V26.5596H23.0968V26.2019C22.8622 26.4523 22.5373 26.6311 22.0681 26.6311C21.4364 26.6132 20.8949 26.2555 20.8949 25.5938ZM23.1149 25.3792V25.2182C22.9524 25.1466 22.7359 25.093 22.5012 25.093C22.0861 25.093 21.8334 25.254 21.8334 25.558V25.5759C21.8334 25.8263 22.05 25.9873 22.3568 25.9873C22.8081 25.9694 23.1149 25.719 23.1149 25.3792Z" fill="#050509"/>
<path d="M26.49 22.1599H29.8651V23.0363H27.4646V23.9663H29.5763V24.8427H27.4646V26.5418H26.49V22.1599Z" fill="#050509"/>
<path d="M30.0275 24.8964C30.0275 23.9127 30.8216 23.1257 31.8684 23.1257C32.9153 23.1257 33.7094 23.8948 33.7094 24.8606V24.8785C33.7094 25.8443 32.9153 26.6313 31.8684 26.6313C30.8216 26.6313 30.0275 25.8622 30.0275 24.8964ZM32.7709 24.8964C32.7709 24.3956 32.4099 23.9485 31.8684 23.9485C31.3089 23.9485 30.984 24.3777 30.984 24.8606V24.8785C30.984 25.3793 31.345 25.8085 31.8865 25.8085C32.4279 25.8085 32.7709 25.3972 32.7709 24.8964Z" fill="#050509"/>
<path d="M34.1606 25.3793V23.1973H35.1172V25.0752C35.1172 25.5224 35.3338 25.7549 35.6948 25.7549C36.0558 25.7549 36.2904 25.5224 36.2904 25.0752V23.1973H37.247V26.5597H36.2904V26.0768C36.0738 26.363 35.785 26.6134 35.2977 26.6134C34.5938 26.6134 34.1606 26.1483 34.1606 25.3793Z" fill="#050509"/>
<path d="M37.9509 23.1972H38.9075V23.6801C39.1241 23.3939 39.4129 23.1436 39.9002 23.1436C40.6221 23.1436 41.0553 23.6265 41.0553 24.3955V26.5775H40.0987V24.6817C40.0987 24.2346 39.8821 24.0021 39.5212 24.0021C39.1602 24.0021 38.9256 24.2346 38.9256 24.6817V26.5597H37.969V23.1972H37.9509Z" fill="#050509"/>
<path d="M41.5605 24.8784C41.5605 23.7338 42.3005 23.1257 43.1127 23.1257C43.6181 23.1257 43.943 23.3582 44.1776 23.6265V21.9631H45.1342V26.5597H44.1776V26.0768C43.943 26.3987 43.6181 26.6312 43.1127 26.6312C42.3186 26.6133 41.5605 26.0052 41.5605 24.8784ZM44.1776 24.8784C44.1776 24.3061 43.7986 23.9305 43.3474 23.9305C42.8961 23.9305 42.5171 24.2882 42.5171 24.8606V24.8784C42.5171 25.4329 42.8961 25.8085 43.3474 25.8085C43.8166 25.8085 44.1776 25.4329 44.1776 24.8784Z" fill="#050509"/>
<path d="M45.6035 25.5938C45.6035 24.8426 46.163 24.5028 46.9752 24.5028C47.3181 24.5028 47.5708 24.5564 47.8054 24.6459V24.5922C47.8054 24.1987 47.5528 23.9841 47.0835 23.9841C46.7225 23.9841 46.4518 24.0556 46.145 24.163L45.9103 23.4297C46.2894 23.2687 46.6503 23.1614 47.2279 23.1614C47.7513 23.1614 48.1303 23.3045 48.383 23.537C48.6357 23.7874 48.744 24.163 48.744 24.6101V26.5596H47.8054V26.2019C47.5708 26.4523 47.2459 26.6311 46.7767 26.6311C46.145 26.6132 45.6035 26.2555 45.6035 25.5938ZM47.8235 25.3792V25.2182C47.6611 25.1466 47.4445 25.093 47.2098 25.093C46.7947 25.093 46.542 25.254 46.542 25.558V25.5759C46.542 25.8263 46.7586 25.9873 47.0655 25.9873C47.5167 25.9694 47.8235 25.719 47.8235 25.3792Z" fill="#050509"/>
<path d="M49.502 25.6116V24.0198H49.105V23.1971H49.502V22.3386H50.4586V23.1971H51.2528V24.0198H50.4586V25.4507C50.4586 25.6653 50.5489 25.7726 50.7655 25.7726C50.9459 25.7726 51.1084 25.7368 51.2347 25.6474V26.4165C51.0362 26.5417 50.8015 26.6132 50.4767 26.6132C49.8991 26.6132 49.502 26.3807 49.502 25.6116Z" fill="#050509"/>
<path d="M51.7942 21.9631H52.8049V22.8037H51.7942V21.9631ZM51.8122 23.1972H52.7688V26.5597H51.8122V23.1972Z" fill="#050509"/>
<path d="M53.2742 24.8964C53.2742 23.9127 54.0683 23.1257 55.1151 23.1257C56.162 23.1257 56.9561 23.8948 56.9561 24.8606V24.8785C56.9561 25.8443 56.162 26.6313 55.1151 26.6313C54.0503 26.6313 53.2742 25.8622 53.2742 24.8964ZM55.9995 24.8964C55.9995 24.3956 55.6385 23.9485 55.0971 23.9485C54.5376 23.9485 54.2127 24.3777 54.2127 24.8606V24.8785C54.2127 25.3793 54.5737 25.8085 55.1151 25.8085C55.6746 25.8085 55.9995 25.3972 55.9995 24.8964Z" fill="#050509"/>
<path d="M57.4434 23.1972H58.3999V23.6801C58.6165 23.3939 58.9053 23.1436 59.3926 23.1436C60.1146 23.1436 60.5477 23.6265 60.5477 24.3955V26.5775H59.5911V24.6817C59.5911 24.2346 59.3746 24.0021 59.0136 24.0021C58.6526 24.0021 58.418 24.2346 58.418 24.6817V26.5597H57.4614V23.1972H57.4434Z" fill="#050509"/>
<path d="M1.79941 30.3336H1.40234V29.5466H1.79941V29.332C1.79941 28.9564 1.88966 28.6881 2.07014 28.5092C2.25063 28.3304 2.50331 28.241 2.84624 28.241C3.15306 28.241 3.3516 28.2767 3.53209 28.3304V29.1173C3.3877 29.0637 3.26135 29.0279 3.09892 29.0279C2.88233 29.0279 2.75599 29.1352 2.75599 29.3856V29.5108H3.53209V30.2978H2.75599V32.8554H1.79941V30.3336Z" fill="#050509"/>
<path d="M3.64038 31.2277C3.64038 30.244 4.43452 29.457 5.48134 29.457C6.52817 29.457 7.32231 30.2261 7.32231 31.1919V31.2098C7.32231 32.1756 6.52817 32.9626 5.48134 32.9626C4.41647 32.9626 3.64038 32.1935 3.64038 31.2277ZM6.36573 31.2277C6.36573 30.7269 6.00475 30.2798 5.4633 30.2798C4.90379 30.2798 4.57891 30.709 4.57891 31.1919V31.2098C4.57891 31.7106 4.93988 32.1398 5.48134 32.1398C6.04085 32.1398 6.36573 31.7106 6.36573 31.2277Z" fill="#050509"/>
<path d="M7.80957 29.5109H8.76615V30.1905C8.96468 29.7255 9.27151 29.4214 9.84907 29.4572V30.4588H9.81297C9.18127 30.4588 8.7842 30.8344 8.7842 31.6392V32.8912H7.82762V29.5109H7.80957Z" fill="#050509"/>
<path d="M12.1412 28.4912H13.1159V32.891H12.1412V28.4912Z" fill="#050509"/>
<path d="M13.91 29.5107H14.8666V29.9936C15.0832 29.7074 15.372 29.457 15.8593 29.457C16.5812 29.457 17.0144 29.9399 17.0144 30.709V32.891H16.0578V31.0131C16.0578 30.5659 15.8412 30.3334 15.4803 30.3334C15.1193 30.3334 14.8847 30.5659 14.8847 31.0131V32.891H13.9281V29.5107H13.91Z" fill="#050509"/>
<path d="M17.6823 29.5107H18.6388V29.9936C18.8554 29.7074 19.1442 29.457 19.6315 29.457C20.3535 29.457 20.7866 29.9399 20.7866 30.709V32.891H19.83V31.0131C19.83 30.5659 19.6135 30.3334 19.2525 30.3334C18.8915 30.3334 18.6569 30.5659 18.6569 31.0131V32.891H17.7003V29.5107H17.6823Z" fill="#050509"/>
<path d="M21.2559 31.2277C21.2559 30.244 22.05 29.457 23.0968 29.457C24.1436 29.457 24.9378 30.2261 24.9378 31.1919V31.2098C24.9378 32.1756 24.1436 32.9626 23.0968 32.9626C22.032 32.9626 21.2559 32.1935 21.2559 31.2277ZM23.9812 31.2277C23.9812 30.7269 23.6202 30.2798 23.0788 30.2798C22.5193 30.2798 22.1944 30.709 22.1944 31.1919V31.2098C22.1944 31.7106 22.5554 32.1398 23.0968 32.1398C23.6563 32.1398 23.9812 31.7106 23.9812 31.2277Z" fill="#050509"/>
<path d="M24.9377 29.5107H25.9665L26.7246 31.7643L27.5007 29.5107H28.5114L27.1758 32.909H26.3094L24.9377 29.5107Z" fill="#050509"/>
<path d="M28.5294 31.9253C28.5294 31.1741 29.0889 30.8343 29.9011 30.8343C30.244 30.8343 30.4967 30.888 30.7314 30.9774V30.9237C30.7314 30.5303 30.4787 30.3156 30.0094 30.3156C29.6484 30.3156 29.3777 30.3872 29.0709 30.4945L28.8362 29.7612C29.2153 29.6002 29.5762 29.4929 30.1538 29.4929C30.6772 29.4929 31.0562 29.636 31.3089 29.8685C31.5616 30.1189 31.6699 30.4945 31.6699 30.9416V32.8911H30.7314V32.5334C30.4967 32.7838 30.1718 32.9627 29.7026 32.9627C29.0528 32.9448 28.5294 32.5871 28.5294 31.9253ZM30.7314 31.6928V31.5318C30.5689 31.4603 30.3523 31.4067 30.1177 31.4067C29.7026 31.4067 29.4499 31.5676 29.4499 31.8717V31.8896C29.4499 32.14 29.6665 32.3009 29.9733 32.3009C30.4245 32.283 30.7314 32.0505 30.7314 31.6928Z" fill="#050509"/>
<path d="M32.4099 31.9254V30.3336H32.0128V29.5108H32.4099V28.6523H33.3665V29.5108H34.1606V30.3336H33.3665V31.7644C33.3665 31.979 33.4567 32.0863 33.6733 32.0863C33.8538 32.0863 34.0162 32.0506 34.1426 31.9611V32.7302C33.944 32.8554 33.7094 32.9269 33.3845 32.9269C32.807 32.9448 32.4099 32.7123 32.4099 31.9254Z" fill="#050509"/>
<path d="M34.7021 28.2944H35.7129V29.135H34.7021V28.2944ZM34.7202 29.5106H35.6768V32.8731H34.7202V29.5106Z" fill="#050509"/>
<path d="M36.1821 31.2277C36.1821 30.244 36.9763 29.457 38.0231 29.457C39.0699 29.457 39.8641 30.2261 39.8641 31.1919V31.2098C39.8641 32.1756 39.0699 32.9626 38.0231 32.9626C36.9582 32.9626 36.1821 32.1935 36.1821 31.2277ZM38.9075 31.2277C38.9075 30.7269 38.5465 30.2798 38.005 30.2798C37.4455 30.2798 37.1207 30.709 37.1207 31.1919V31.2098C37.1207 31.7106 37.4816 32.1398 38.0231 32.1398C38.5826 32.1398 38.9075 31.7106 38.9075 31.2277Z" fill="#050509"/>
<path d="M40.3513 29.5107H41.3079V29.9936C41.5245 29.7074 41.8133 29.457 42.3006 29.457C43.0225 29.457 43.4557 29.9399 43.4557 30.709V32.891H42.4991V31.0131C42.4991 30.5659 42.2825 30.3334 41.9215 30.3334C41.5606 30.3334 41.3259 30.5659 41.3259 31.0131V32.891H40.3694V29.5107H40.3513Z" fill="#050509"/>
<path d="M70.1135 21.9812H73.4886V22.8576H71.0882V23.7876H73.1999V24.664H71.0882V26.3631H70.1135V21.9812Z" fill="#050509"/>
<path d="M73.6692 24.7177C73.6692 23.734 74.4633 22.947 75.5102 22.947C76.557 22.947 77.3511 23.7161 77.3511 24.6819V24.6998C77.3511 25.6656 76.557 26.4525 75.5102 26.4525C74.4453 26.4704 73.6692 25.6835 73.6692 24.7177ZM76.3945 24.7177C76.3945 24.2169 76.0336 23.7697 75.4921 23.7697C74.9326 23.7697 74.6077 24.199 74.6077 24.6819V24.6998C74.6077 25.2006 74.9687 25.6298 75.5102 25.6298C76.0697 25.6477 76.3945 25.2185 76.3945 24.7177Z" fill="#050509"/>
<path d="M77.8384 23.0185H78.795V23.5014C79.0115 23.2152 79.3003 22.9648 79.7876 22.9648C80.5096 22.9648 80.9427 23.4477 80.9427 24.2168V26.3988H79.9862V24.503C79.9862 24.0558 79.7696 23.8233 79.4086 23.8233C79.0476 23.8233 78.813 24.0558 78.813 24.503V26.3809H77.8564V23.0185H77.8384Z" fill="#050509"/>
<path d="M81.4481 24.7176C81.4481 23.5729 82.1881 22.9648 83.0003 22.9648C83.5057 22.9648 83.8305 23.1973 84.0652 23.4656V21.8022H85.0218V26.3988H84.0652V25.9159C83.8305 26.2378 83.5057 26.4703 83.0003 26.4703C82.2062 26.4524 81.4481 25.8264 81.4481 24.7176ZM84.0652 24.7176C84.0652 24.1452 83.6862 23.7696 83.2349 23.7696C82.7837 23.7696 82.4047 24.1273 82.4047 24.6997V24.7176C82.4047 25.272 82.7837 25.6476 83.2349 25.6476C83.6862 25.6476 84.0652 25.272 84.0652 24.7176Z" fill="#050509"/>
<path d="M85.491 25.4151C85.491 24.6639 86.0505 24.3241 86.8627 24.3241C87.2056 24.3241 87.4583 24.3777 87.6929 24.4671V24.4135C87.6929 24.02 87.4402 23.8054 86.971 23.8054C86.61 23.8054 86.3393 23.8769 86.0324 23.9842L85.7978 23.2509C86.1768 23.09 86.5378 22.9827 87.1153 22.9827C87.6388 22.9827 88.0178 23.1257 88.2705 23.3583C88.5231 23.6087 88.6314 23.9842 88.6314 24.4314V26.3809H87.6929V26.0232C87.4583 26.2736 87.1334 26.4524 86.6641 26.4524C86.0144 26.4524 85.491 26.0768 85.491 25.4151ZM87.711 25.2004V25.0395C87.5485 24.9679 87.3319 24.9143 87.0973 24.9143C86.6822 24.9143 86.4295 25.0752 86.4295 25.3793V25.3972C86.4295 25.6476 86.6461 25.8085 86.9529 25.8085C87.4041 25.7907 87.711 25.5403 87.711 25.2004Z" fill="#050509"/>
<path d="M89.3714 25.4329V23.8411H88.9744V23.0184H89.3714V22.1599H90.328V23.0184H91.1222V23.8411H90.328V25.272C90.328 25.4866 90.4183 25.5939 90.6348 25.5939C90.8153 25.5939 90.9778 25.5581 91.1041 25.4687V26.2378C90.9056 26.363 90.6709 26.4345 90.3461 26.4345C89.7685 26.4524 89.3714 26.2199 89.3714 25.4329Z" fill="#050509"/>
<path d="M91.6637 21.8022H92.6744V22.6429H91.6637V21.8022ZM91.6998 23.0184H92.6564V26.3809H91.6998V23.0184Z" fill="#050509"/>
<path d="M93.1437 24.7177C93.1437 23.734 93.9378 22.947 94.9846 22.947C96.0315 22.947 96.8256 23.7161 96.8256 24.6819V24.6998C96.8256 25.6656 96.0315 26.4525 94.9846 26.4525C93.9378 26.4704 93.1437 25.6835 93.1437 24.7177ZM95.8871 24.7177C95.8871 24.2169 95.5261 23.7697 94.9846 23.7697C94.4251 23.7697 94.1003 24.199 94.1003 24.6819V24.6998C94.1003 25.2006 94.4612 25.6298 95.0027 25.6298C95.5441 25.6477 95.8871 25.2185 95.8871 24.7177Z" fill="#050509"/>
<path d="M97.3309 23.0185H98.2875V23.5014C98.5041 23.2152 98.7929 22.9648 99.2802 22.9648C100.002 22.9648 100.435 23.4477 100.435 24.2168V26.3988H99.4787V24.503C99.4787 24.0558 99.2621 23.8233 98.9012 23.8233C98.5402 23.8233 98.3056 24.0558 98.3056 24.503V26.3809H97.349V23.0185H97.3309Z" fill="#050509"/>
<path d="M102.637 24.7177C102.637 23.7519 103.377 22.947 104.424 22.947C105.056 22.947 105.471 23.1616 105.778 23.5194L105.182 24.1453C104.965 23.9128 104.749 23.7697 104.406 23.7697C103.919 23.7697 103.576 24.199 103.576 24.6819V24.6998C103.576 25.2185 103.919 25.6298 104.442 25.6298C104.767 25.6298 104.984 25.4867 105.218 25.2721L105.778 25.8444C105.453 26.2022 105.074 26.4525 104.388 26.4525C103.377 26.4704 102.637 25.6835 102.637 24.7177Z" fill="#050509"/>
<path d="M106.012 25.4151C106.012 24.6639 106.572 24.3241 107.384 24.3241C107.727 24.3241 107.98 24.3777 108.214 24.4671V24.4135C108.214 24.02 107.962 23.8054 107.492 23.8054C107.131 23.8054 106.861 23.8769 106.554 23.9842L106.319 23.2509C106.698 23.09 107.059 22.9827 107.637 22.9827C108.16 22.9827 108.539 23.1257 108.792 23.3583C109.045 23.6087 109.153 23.9842 109.153 24.4314V26.3809H108.214V26.0232C107.98 26.2736 107.655 26.4524 107.185 26.4524C106.536 26.4524 106.012 26.0768 106.012 25.4151ZM108.214 25.2004V25.0395C108.052 24.9679 107.835 24.9143 107.601 24.9143C107.185 24.9143 106.933 25.0752 106.933 25.3793V25.3972C106.933 25.6476 107.149 25.8085 107.456 25.8085C107.907 25.7907 108.214 25.5403 108.214 25.2004Z" fill="#050509"/>
<path d="M109.785 23.0185H110.741V23.5014C110.958 23.2152 111.246 22.9648 111.734 22.9648C112.456 22.9648 112.889 23.4477 112.889 24.2168V26.3988H111.932V24.503C111.932 24.0558 111.716 23.8233 111.355 23.8233C110.994 23.8233 110.759 24.0558 110.759 24.503V26.3809H109.803V23.0185H109.785Z" fill="#050509"/>
<path d="M113.322 25.4151C113.322 24.6639 113.882 24.3241 114.694 24.3241C115.037 24.3241 115.289 24.3777 115.524 24.4671V24.4135C115.524 24.02 115.271 23.8054 114.802 23.8054C114.441 23.8054 114.17 23.8769 113.863 23.9842L113.629 23.2509C114.008 23.09 114.369 22.9827 114.946 22.9827C115.47 22.9827 115.849 23.1257 116.102 23.3583C116.354 23.6087 116.462 23.9842 116.462 24.4314V26.3809H115.524V26.0232C115.289 26.2736 114.964 26.4524 114.495 26.4524C113.845 26.4524 113.322 26.0768 113.322 25.4151ZM115.542 25.2004V25.0395C115.38 24.9679 115.163 24.9143 114.928 24.9143C114.513 24.9143 114.261 25.0752 114.261 25.3793V25.3972C114.261 25.6476 114.477 25.8085 114.784 25.8085C115.235 25.7907 115.542 25.5403 115.542 25.2004Z" fill="#050509"/>
<path d="M116.932 24.7176C116.932 23.5729 117.672 22.9648 118.484 22.9648C118.989 22.9648 119.314 23.1973 119.549 23.4656V21.8022H120.505V26.3988H119.549V25.9159C119.314 26.2378 118.989 26.4703 118.484 26.4703C117.69 26.4524 116.932 25.8264 116.932 24.7176ZM119.549 24.7176C119.549 24.1452 119.17 23.7696 118.719 23.7696C118.267 23.7696 117.888 24.1273 117.888 24.6997V24.7176C117.888 25.272 118.267 25.6476 118.719 25.6476C119.17 25.6476 119.549 25.272 119.549 24.7176Z" fill="#050509"/>
<path d="M121.173 21.8022H122.184V22.6429H121.173V21.8022ZM121.209 23.0184H122.166V26.3809H121.209V23.0184Z" fill="#050509"/>
<path d="M122.671 24.7177C122.671 23.7519 123.357 22.947 124.35 22.947C125.487 22.947 126.01 23.8234 126.01 24.7713C126.01 24.8429 126.01 24.9323 125.992 25.0217H123.628C123.718 25.451 124.025 25.6835 124.458 25.6835C124.783 25.6835 125.018 25.5762 125.288 25.3437L125.848 25.8266C125.523 26.22 125.072 26.4525 124.458 26.4525C123.429 26.4704 122.671 25.755 122.671 24.7177ZM125.072 24.4315C125.018 24.0023 124.765 23.7161 124.35 23.7161C123.953 23.7161 123.682 24.0023 123.61 24.4315H125.072Z" fill="#050509"/>
<path d="M126.516 23.0185H127.472V23.5014C127.689 23.2152 127.978 22.9648 128.465 22.9648C129.187 22.9648 129.62 23.4477 129.62 24.2168V26.3988H128.663V24.503C128.663 24.0558 128.447 23.8233 128.086 23.8233C127.725 23.8233 127.49 24.0558 127.49 24.503V26.3809H126.534V23.0185H126.516Z" fill="#050509"/>
<path d="M130.288 23.0185H131.244V23.5014C131.461 23.2152 131.75 22.9648 132.237 22.9648C132.959 22.9648 133.392 23.4477 133.392 24.2168V26.3988H132.436V24.503C132.436 24.0558 132.219 23.8233 131.858 23.8233C131.497 23.8233 131.262 24.0558 131.262 24.503V26.3809H130.306V23.0185H130.288Z" fill="#050509"/>
<path d="M133.879 24.7177C133.879 23.7519 134.565 22.947 135.558 22.947C136.695 22.947 137.218 23.8234 137.218 24.7713C137.218 24.8429 137.218 24.9323 137.2 25.0217H134.836C134.926 25.451 135.233 25.6835 135.666 25.6835C135.991 25.6835 136.226 25.5762 136.496 25.3437L137.056 25.8266C136.731 26.22 136.28 26.4525 135.666 26.4525C134.619 26.4704 133.879 25.755 133.879 24.7177ZM136.262 24.4315C136.208 24.0023 135.955 23.7161 135.54 23.7161C135.143 23.7161 134.872 24.0023 134.8 24.4315H136.262Z" fill="#050509"/>
<path d="M70.0052 29.3499H70.9618V29.8328C71.1965 29.5108 71.5213 29.2783 72.0267 29.2783C72.8208 29.2783 73.5789 29.8864 73.5789 31.0132V31.0311C73.5789 32.1579 72.8389 32.766 72.0267 32.766C71.5213 32.766 71.1965 32.5334 70.9618 32.2652V33.7139H70.0052V29.3499ZM72.6223 31.0311C72.6223 30.4588 72.2433 30.0832 71.7921 30.0832C71.3408 30.0832 70.9618 30.4588 70.9618 31.0132V31.0311C70.9618 31.5855 71.3408 31.9611 71.7921 31.9611C72.2433 31.9611 72.6223 31.6034 72.6223 31.0311Z" fill="#050509"/>
<path d="M73.9219 31.049C73.9219 30.0653 74.716 29.2783 75.7628 29.2783C76.8097 29.2783 77.6038 30.0474 77.6038 31.0132V31.0311C77.6038 31.9969 76.8097 32.7838 75.7628 32.7838C74.698 32.7838 73.9219 32.0148 73.9219 31.049ZM76.6472 31.049C76.6472 30.5482 76.2862 30.101 75.7448 30.101C75.1853 30.101 74.8604 30.5303 74.8604 31.0132V31.0311C74.8604 31.5319 75.2214 31.9611 75.7628 31.9611C76.3223 31.9611 76.6472 31.5498 76.6472 31.049Z" fill="#050509"/>
<path d="M78.0549 31.5319V29.3499H79.0115V31.2278C79.0115 31.6749 79.2281 31.9075 79.5891 31.9075C79.95 31.9075 80.1847 31.6749 80.1847 31.2278V29.3499H81.1413V32.7123H80.2027V32.2294C79.9861 32.5156 79.6974 32.7659 79.21 32.7659C78.47 32.7838 78.0549 32.3009 78.0549 31.5319Z" fill="#050509"/>
<path d="M81.8452 29.35H82.8018V30.0296C83.0003 29.5646 83.3072 29.2605 83.8847 29.2963V30.2979H83.8306C83.1989 30.2979 82.8018 30.6735 82.8018 31.4783V32.7303H81.8452V29.35Z" fill="#050509"/>
<path d="M86.0686 28.1335H87.0252V32.7301H86.0686V28.1335Z" fill="#050509"/>
<path d="M87.5305 29.9401C87.9637 29.9043 88.1803 29.6718 88.1442 29.3141H87.7471V28.3125H88.7759V29.1531C88.7759 29.9758 88.3608 30.3157 87.6027 30.3335L87.5305 29.9401Z" fill="#050509"/>
<path d="M89.3534 28.1335H90.3641V28.9742H89.3534V28.1335ZM89.3895 29.3497H90.3461V32.7122H89.3895V29.3497Z" fill="#050509"/>
<path d="M91.032 29.3498H91.9886V29.8327C92.2051 29.5465 92.4939 29.2961 92.9812 29.2961C93.7032 29.2961 94.1364 29.779 94.1364 30.5481V32.7301H93.1798V30.8522C93.1798 30.405 92.9632 30.1725 92.6022 30.1725C92.2412 30.1725 92.0066 30.405 92.0066 30.8522V32.7301H91.032V29.3498Z" fill="#050509"/>
<path d="M94.8041 29.3498H95.7607V29.8327C95.9772 29.5465 96.266 29.2961 96.7533 29.2961C97.4753 29.2961 97.9084 29.779 97.9084 30.5481V32.7301H96.9519V30.8522C96.9519 30.405 96.7353 30.1725 96.3743 30.1725C96.0133 30.1725 95.7787 30.405 95.7787 30.8522V32.7301H94.8221V29.3498H94.8041Z" fill="#050509"/>
<path d="M98.3958 31.049C98.3958 30.0653 99.1899 29.2783 100.237 29.2783C101.284 29.2783 102.078 30.0474 102.078 31.0132V31.0311C102.078 31.9969 101.284 32.7838 100.237 32.7838C99.1718 32.7838 98.3958 32.0148 98.3958 31.049ZM101.121 31.049C101.121 30.5482 100.76 30.101 100.219 30.101C99.6592 30.101 99.3343 30.5303 99.3343 31.0132V31.0311C99.3343 31.5319 99.6953 31.9611 100.237 31.9611C100.778 31.9611 101.121 31.5498 101.121 31.049Z" fill="#050509"/>
<path d="M102.06 29.3499H103.088L103.847 31.6034L104.623 29.3499H105.633L104.298 32.7481H103.431L102.06 29.3499Z" fill="#050509"/>
<path d="M105.651 31.7464C105.651 30.9952 106.211 30.6554 107.023 30.6554C107.366 30.6554 107.619 30.709 107.853 30.7984V30.7448C107.853 30.3513 107.601 30.1367 107.131 30.1367C106.77 30.1367 106.5 30.2082 106.193 30.3155L105.958 29.5822C106.337 29.4213 106.698 29.314 107.276 29.314C107.799 29.314 108.178 29.457 108.431 29.6896C108.684 29.94 108.792 30.3155 108.792 30.7627V32.7122H107.853V32.3545C107.619 32.6049 107.294 32.7837 106.825 32.7837C106.175 32.7837 105.651 32.4081 105.651 31.7464ZM107.871 31.5317V31.3708C107.709 31.2992 107.492 31.2456 107.258 31.2456C106.843 31.2456 106.59 31.4065 106.59 31.7106V31.7285C106.59 31.9789 106.806 32.1398 107.113 32.1398C107.565 32.122 107.871 31.8716 107.871 31.5317Z" fill="#050509"/>
<path d="M109.532 31.7645V30.1727H109.135V29.35H109.532V28.4915H110.488V29.35H111.283V30.1727H110.488V31.6035C110.488 31.8181 110.579 31.9254 110.795 31.9254C110.976 31.9254 111.138 31.8897 111.265 31.8002V32.5693C111.066 32.6945 110.831 32.766 110.506 32.766C109.929 32.766 109.532 32.5335 109.532 31.7645Z" fill="#050509"/>
<path d="M111.842 28.1335H112.853V28.9742H111.842V28.1335ZM111.86 29.3497H112.817V32.7122H111.86V29.3497Z" fill="#050509"/>
<path d="M113.322 31.049C113.322 30.0653 114.116 29.2783 115.163 29.2783C116.21 29.2783 117.004 30.0474 117.004 31.0132V31.0311C117.004 31.9969 116.21 32.7838 115.163 32.7838C114.098 32.7838 113.322 32.0148 113.322 31.049ZM116.047 31.049C116.047 30.5482 115.686 30.101 115.145 30.101C114.585 30.101 114.261 30.5303 114.261 31.0132V31.0311C114.261 31.5319 114.622 31.9611 115.163 31.9611C115.704 31.9611 116.047 31.5498 116.047 31.049Z" fill="#050509"/>
<path d="M117.491 29.3498H118.448V29.8327C118.664 29.5465 118.953 29.2961 119.44 29.2961C120.162 29.2961 120.596 29.779 120.596 30.5481V32.7301H119.639V30.8522C119.639 30.405 119.422 30.1725 119.061 30.1725C118.7 30.1725 118.466 30.405 118.466 30.8522V32.7301H117.509V29.3498H117.491Z" fill="#050509"/>
<defs>
<linearGradient id="paint0_linear_756_1156" x1="54.8238" y1="8.4732" x2="43.1693" y2="15.6321" gradientUnits="userSpaceOnUse">
<stop stop-color="#E83829"/>
<stop offset="1" stop-color="#630832"/>
</linearGradient>
<linearGradient id="paint1_linear_756_1156" x1="43.499" y1="11.7273" x2="52.5968" y2="4.07654" gradientUnits="userSpaceOnUse">
<stop offset="0.00043631" stop-color="#E83829"/>
<stop offset="1" stop-color="#630832"/>
</linearGradient>
</defs>
</svg>
